<svg xmlns="http://www.w3.org/2000/svg" viewBox="0 0 100 100">
  <!-- Dark background -->
  <rect width="100" height="100" rx="18" fill="#0D1117"/>
  <defs>
    <linearGradient id="fvg" x1="8" y1="8" x2="92" y2="92" gradientUnits="userSpaceOnUse">
      <stop offset="0%"   stop-color="#FFC000"/>
      <stop offset="20%"  stop-color="#FF6600"/>
      <stop offset="38%"  stop-color="#FF2255"/>
      <stop offset="56%"  stop-color="#BB22EE"/>
      <stop offset="75%"  stop-color="#5522EE"/>
      <stop offset="100%" stop-color="#00DDA8"/>
    </linearGradient>
  </defs>
  <!-- PH mark scaled and centered in 100x100 -->
  <!-- P with counter (original viewBox 0 0 90 60, scaled ~1.07x and translated) -->
  <g transform="translate(5, 20) scale(1.0)">
    <!-- P -->
    <path fill="url(#fvg)" fill-rule="evenodd"
      d="M3 6C3 4.3 4.3 3 6 3H19C33.4 3 45 11.3 45 22C45 32.7 33.4 40 19 40H16V54C16 55.7 14.7 57 13 57H6C4.3 57 3 55.7 3 54V6Z
         M16 13H19C28.4 13 33 16.9 33 22C33 27.1 28.4 31 19 31H16V13Z"/>
    <!-- H -->
    <path fill="url(#fvg)"
      d="M47 3C45.3 3 44 4.3 44 6V54C44 55.7 45.3 57 47 57H55C56.7 57 58 55.7 58 54V38H73V54C73 55.7 74.3 57 76 57H83C84.7 57 86 55.7 86 54V6C86 4.3 84.7 3 83 3H76C74.3 3 73 4.3 73 6V26H58V6C58 4.3 56.7 3 55 3H47Z"/>
  </g>
</svg>
